<?xml version="1.0" encoding="utf-8"?>
<!-- Generator: Adobe Illustrator 21.1.0, SVG Export Plug-In . SVG Version: 6.00 Build 0)  -->
<svg version="1.1" class="mainIcon" xmlns="http://www.w3.org/2000/svg" xmlns:xlink="http://www.w3.org/1999/xlink" x="0px" y="0px"
	 viewBox="0 0 175.5 175.5" style="enable-background:new 0 0 175.5 175.5;" xml:space="preserve">
<style type="text/css">
	.st0{fill:#029789;}
	.st1{clip-path:url(#SVGID_2_);fill:#00A79D;}
	.st2{fill:#FFFFFF;}
	.st3{clip-path:url(#SVGID_4_);fill:#00A79D;}
	.st4{clip-path:url(#SVGID_6_);fill:#00A79D;}
	.st5{clip-path:url(#SVGID_8_);fill:#00A79D;}
	.st6{clip-path:url(#SVGID_10_);fill:#00A79D;}
	.st7{clip-path:url(#SVGID_12_);fill:#00A79D;}
	.st8{clip-path:url(#SVGID_14_);fill:#00A79D;}
	.st9{clip-path:url(#SVGID_16_);fill:#00A79D;}
	.st10{clip-path:url(#SVGID_18_);fill:#00A79D;}
	.st11{clip-path:url(#SVGID_20_);fill:#00A79D;}
</style>
<g id="Play">
	<g id="Icon">
	</g>
</g>
<g id="Pause">
	<g id="BG">
	</g>
</g>
<g id="Lives">
	<g id="Bg">
	</g>
</g>
<g id="Menu">
	<g id="BG_1_">
	</g>
</g>
<g id="Quit">
	<g id="Icon_4_">
	</g>
</g>
<g id="Sound">
	<g>
		<circle class="st0" cx="87.8" cy="87.8" r="87.8"/>
		<g>
			<defs>
				<circle id="SVGID_11_" cx="87.8" cy="91.8" r="87.8"/>
			</defs>
			<clipPath id="SVGID_2_">
				<use xlink:href="#SVGID_11_"  style="overflow:visible;"/>
			</clipPath>
			<circle class="st1" cx="87.8" cy="84" r="87.8"/>
		</g>
		<g>
			<path class="st0" d="M107.8,124.8l-21.6-16.1c-1.1-0.8-2.4-1.3-3.8-1.3l-27.1-0.7c-3.7-0.1-6.5-3.1-6.5-6.8l0.5-19.3
				c0.1-3.7,3.1-6.5,6.8-6.5l23.5,0.6c1.6,0,3.1-0.5,4.3-1.5l22.8-18.4c4.3-3.5,10.6-0.5,10.8,5l0.8,31.7l-0.2-0.1l0.3,28
				C118.5,124.9,112.2,128.1,107.8,124.8z"/>
		</g>
		<g>
			<path class="st2" d="M117.4,125.1l-27.9-20.8c-0.5-0.4-1.2-0.6-1.9-0.6l-31.6-0.8c-1.8,0-3.2-1.5-3.2-3.3l0.6-26
				c0-1.8,1.5-3.2,3.3-3.2L84.9,71c0.8,0,1.5-0.2,2.1-0.7l29-23.5c2.1-1.7,5.2-0.3,5.3,2.4l1,38.5l-0.2-0.1l0.4,34.8
				C122.6,125.1,119.6,126.7,117.4,125.1z"/>
		</g>
	</g>
</g>
<g id="Mute">
</g>
<g id="Plus">
</g>
<g id="Minus">
</g>
<g id="Alert">
</g>
</svg>
