<?xml version="1.0" encoding="utf-8"?>
<!-- Generator: Adobe Illustrator 21.1.0, SVG Export Plug-In . SVG Version: 6.00 Build 0)  -->
<svg version="1.1" class="mainIcon" xmlns="http://www.w3.org/2000/svg" xmlns:xlink="http://www.w3.org/1999/xlink" x="0px" y="0px"
	 viewBox="0 0 175.5 175.5" style="enable-background:new 0 0 175.5 175.5;" xml:space="preserve">
<style type="text/css">
	.st0{fill:#029789;}
	.st1{clip-path:url(#SVGID_2_);fill:#00A79D;}
	.st2{fill:#FFFFFF;}
	.st3{clip-path:url(#SVGID_4_);fill:#00A79D;}
	.st4{clip-path:url(#SVGID_6_);fill:#00A79D;}
	.st5{clip-path:url(#SVGID_8_);fill:#00A79D;}
	.st6{clip-path:url(#SVGID_10_);fill:#00A79D;}
	.st7{clip-path:url(#SVGID_12_);fill:#00A79D;}
	.st8{clip-path:url(#SVGID_14_);fill:#00A79D;}
	.st9{clip-path:url(#SVGID_16_);fill:#00A79D;}
	.st10{clip-path:url(#SVGID_18_);fill:#00A79D;}
	.st11{clip-path:url(#SVGID_20_);fill:#00A79D;}
</style>
<g id="Play">
	<g id="Icon">
	</g>
</g>
<g id="Pause">
	<g id="BG">
	</g>
</g>
<g id="Lives">
	<g id="Icon_3_">
		<path class="st0" d="M87.8-0.3C39.3-0.3,0,39,0,87.5c0,48.5,39.3,87.8,87.8,87.8c48.5,0,87.8-39.3,87.8-87.8
			C175.5,39,136.2-0.3,87.8-0.3z M87.8,127.9c-28.6-2.7-51.1-27.3-51.1-57.2s22.4-54.5,51.1-57.3c28.6,2.7,51,27.3,51,57.3
			S116.4,125.2,87.8,127.9z"/>
		<g>
			<defs>
				<circle id="SVGID_5_" cx="87.8" cy="91.5" r="87.8"/>
			</defs>
			<clipPath id="SVGID_2_">
				<use xlink:href="#SVGID_5_"  style="overflow:visible;"/>
			</clipPath>
			<circle class="st1" cx="87.8" cy="83.7" r="87.8"/>
		</g>
		<path class="st0" d="M137.6,77.2c0,30-25.4,51.6-51,61.9c-29.4-9.7-51.1-32-51.1-61.9c0-16.2,13.2-29.4,29.4-29.4
			c8.6,0,16.3,3.7,21.7,9.5c5.4-5.9,13.1-9.5,21.6-9.5C124.4,47.8,137.6,60.9,137.6,77.2z"/>
		<path class="st2" d="M138.8,74.2c0,30-25.4,51.6-51,61.9c-29.4-9.7-51.1-32-51.1-61.9c0-16.2,13.2-29.4,29.4-29.4
			c8.6,0,16.3,3.7,21.7,9.5c5.4-5.9,13.1-9.5,21.6-9.5C125.6,44.8,138.8,57.9,138.8,74.2z"/>
	</g>
	<g id="Bg">
	</g>
</g>
<g id="Menu">
	<g id="BG_1_">
	</g>
</g>
<g id="Quit">
	<g id="Icon_4_">
	</g>
</g>
<g id="Sound">
</g>
<g id="Mute">
</g>
<g id="Plus">
</g>
<g id="Minus">
</g>
<g id="Alert">
</g>
</svg>
