<?xml version="1.0" encoding="utf-8"?>
<!-- Generator: Adobe Illustrator 21.1.0, SVG Export Plug-In . SVG Version: 6.00 Build 0)  -->
<svg version="1.1" class="mainIcon" xmlns="http://www.w3.org/2000/svg" xmlns:xlink="http://www.w3.org/1999/xlink" x="0px" y="0px"
	 viewBox="0 0 175.5 175.5" style="enable-background:new 0 0 175.5 175.5;" xml:space="preserve">
<style type="text/css">
	.st0{fill:#029789;}
	.st1{clip-path:url(#SVGID_2_);fill:#00A79D;}
	.st2{fill:#FFFFFF;}
	.st3{clip-path:url(#SVGID_4_);fill:#00A79D;}
	.st4{clip-path:url(#SVGID_6_);fill:#00A79D;}
	.st5{clip-path:url(#SVGID_8_);fill:#00A79D;}
	.st6{clip-path:url(#SVGID_10_);fill:#00A79D;}
	.st7{clip-path:url(#SVGID_12_);fill:#00A79D;}
	.st8{clip-path:url(#SVGID_14_);fill:#00A79D;}
	.st9{clip-path:url(#SVGID_16_);fill:#00A79D;}
	.st10{clip-path:url(#SVGID_18_);fill:#00A79D;}
	.st11{clip-path:url(#SVGID_20_);fill:#00A79D;}
</style>
<g id="Play">
	<g id="Icon">
	</g>
</g>
<g id="Pause">
	<g id="Icon_1_">
		<circle id="Outer" class="st0" cx="87.8" cy="87.8" r="87.8"/>
		<g>
			<path class="st0" d="M67.4,139.9h-4c-6.6,0-12-5.4-12-12V53.6c0-6.6,5.4-12,12-12h4c6.6,0,12,5.4,12,12v74.3
				C79.4,134.5,74,139.9,67.4,139.9z"/>
			<path class="st0" d="M105.2,139.9h-4c-6.6,0-12-5.4-12-12V53.6c0-6.6,5.4-12,12-12h4c6.6,0,12,5.4,12,12v74.3
				C117.2,134.5,111.8,139.9,105.2,139.9z"/>
		</g>
		<g>
			<path class="st2" d="M70.9,136.9h-4c-6.6,0-12-5.4-12-12V50.6c0-6.6,5.4-12,12-12h4c6.6,0,12,5.4,12,12v74.3
				C82.9,131.5,77.5,136.9,70.9,136.9z"/>
			<path class="st2" d="M108.6,136.9h-4c-6.6,0-12-5.4-12-12V50.6c0-6.6,5.4-12,12-12h4c6.6,0,12,5.4,12,12v74.3
				C120.6,131.5,115.2,136.9,108.6,136.9z"/>
		</g>
	</g>
	<g id="BG">
		<g>
			<defs>
				<circle id="SVGID_3_" cx="87.8" cy="91.8" r="87.8"/>
			</defs>
			<clipPath id="SVGID_2_">
				<use xlink:href="#SVGID_3_"  style="overflow:visible;"/>
			</clipPath>
			<circle class="st1" cx="87.8" cy="84" r="87.8"/>
		</g>
	</g>
</g>
<g id="Lives">
	<g id="Bg">
	</g>
</g>
<g id="Menu">
	<g id="BG_1_">
	</g>
</g>
<g id="Quit">
	<g id="Icon_4_">
	</g>
</g>
<g id="Sound">
</g>
<g id="Mute">
</g>
<g id="Plus">
</g>
<g id="Minus">
</g>
<g id="Alert">
</g>
</svg>
