<?xml version="1.0" encoding="utf-8"?>
<!-- Generator: Adobe Illustrator 21.1.0, SVG Export Plug-In . SVG Version: 6.00 Build 0)  -->
<svg version="1.1" class="mainIcon" xmlns="http://www.w3.org/2000/svg" xmlns:xlink="http://www.w3.org/1999/xlink" x="0px" y="0px"
	 viewBox="0 0 175.5 175.5" style="enable-background:new 0 0 175.5 175.5;" xml:space="preserve">
<style type="text/css">
	.st0{fill:#029789;}
	.st1{clip-path:url(#SVGID_2_);fill:#00A79D;}
	.st2{fill:#FFFFFF;}
	.st3{clip-path:url(#SVGID_4_);fill:#00A79D;}
	.st4{clip-path:url(#SVGID_6_);fill:#00A79D;}
	.st5{clip-path:url(#SVGID_8_);fill:#00A79D;}
	.st6{clip-path:url(#SVGID_10_);fill:#00A79D;}
	.st7{clip-path:url(#SVGID_12_);fill:#00A79D;}
	.st8{clip-path:url(#SVGID_14_);fill:#00A79D;}
	.st9{clip-path:url(#SVGID_16_);fill:#00A79D;}
	.st10{clip-path:url(#SVGID_18_);fill:#00A79D;}
	.st11{clip-path:url(#SVGID_20_);fill:#00A79D;}
</style>
<g id="Play">
	<g id="Icon">
	</g>
</g>
<g id="Pause">
	<g id="BG">
	</g>
</g>
<g id="Lives">
	<g id="Bg">
	</g>
</g>
<g id="Menu">
	<g id="BG_1_">
	</g>
</g>
<g id="Quit">
	<g id="Icon_4_">
	</g>
</g>
<g id="Sound">
</g>
<g id="Mute">
</g>
<g id="Plus">
	<g>
		<circle class="st0" cx="87.6" cy="87.9" r="87.8"/>
		<g>
			<defs>
				<circle id="SVGID_15_" cx="87.6" cy="91.9" r="87.8"/>
			</defs>
			<clipPath id="SVGID_2_">
				<use xlink:href="#SVGID_15_"  style="overflow:visible;"/>
			</clipPath>
			<circle class="st1" cx="87.6" cy="84.2" r="87.8"/>
		</g>
		<g>
			<path class="st0" d="M99.3,69.4v45c0,5.2-4.3,9.5-9.5,9.5h-4.5c-5.2,0-9.5-4.3-9.5-9.5v-45c0-5.2,4.3-9.5,9.5-9.5h4.5
				C95.1,59.9,99.3,64.2,99.3,69.4z"/>
			<path class="st0" d="M110.1,103.6h-45c-5.2,0-9.5-4.3-9.5-9.5v-4.5c0-5.2,4.3-9.5,9.5-9.5h45c5.2,0,9.5,4.3,9.5,9.5v4.5
				C119.6,99.4,115.3,103.6,110.1,103.6z"/>
		</g>
		<g>
			<path class="st2" d="M100.8,67.4v45c0,5.2-4.3,9.5-9.5,9.5h-4.5c-5.2,0-9.5-4.3-9.5-9.5v-45c0-5.2,4.3-9.5,9.5-9.5h4.5
				C96.5,57.9,100.8,62.2,100.8,67.4z"/>
			<path class="st2" d="M111.6,101.6h-45c-5.2,0-9.5-4.3-9.5-9.5v-4.5c0-5.2,4.3-9.5,9.5-9.5h45c5.2,0,9.5,4.3,9.5,9.5v4.5
				C121.1,97.4,116.8,101.6,111.6,101.6z"/>
		</g>
	</g>
</g>
<g id="Minus">
</g>
<g id="Alert">
</g>
</svg>
