<?xml version="1.0" encoding="utf-8"?>
<!-- Generator: Adobe Illustrator 21.1.0, SVG Export Plug-In . SVG Version: 6.00 Build 0)  -->
<svg version="1.1" class="mainIcon" xmlns="http://www.w3.org/2000/svg" xmlns:xlink="http://www.w3.org/1999/xlink" x="0px" y="0px"
	 viewBox="0 0 175.5 175.5" style="enable-background:new 0 0 175.5 175.5;" xml:space="preserve">
<style type="text/css">
	.st0{fill:#029789;}
	.st1{clip-path:url(#SVGID_2_);fill:#00A79D;}
	.st2{fill:#FFFFFF;}
	.st3{clip-path:url(#SVGID_4_);fill:#00A79D;}
	.st4{clip-path:url(#SVGID_6_);fill:#00A79D;}
	.st5{clip-path:url(#SVGID_8_);fill:#00A79D;}
	.st6{clip-path:url(#SVGID_10_);fill:#00A79D;}
	.st7{clip-path:url(#SVGID_12_);fill:#00A79D;}
	.st8{clip-path:url(#SVGID_14_);fill:#00A79D;}
	.st9{clip-path:url(#SVGID_16_);fill:#00A79D;}
	.st10{clip-path:url(#SVGID_18_);fill:#00A79D;}
	.st11{clip-path:url(#SVGID_20_);fill:#00A79D;}
</style>
<g id="Play">
	<g id="Icon">
	</g>
</g>
<g id="Pause">
	<g id="BG">
	</g>
</g>
<g id="Lives">
	<g id="Bg">
	</g>
</g>
<g id="Menu">
	<g id="Icon_2_">
		<circle class="st0" cx="87.8" cy="88" r="87.8"/>
		<g>
			<defs>
				<circle id="SVGID_7_" cx="87.8" cy="92" r="87.8"/>
			</defs>
			<clipPath id="SVGID_2_">
				<use xlink:href="#SVGID_7_"  style="overflow:visible;"/>
			</clipPath>
			<circle class="st1" cx="87.8" cy="84.2" r="87.8"/>
		</g>
		<g>
			<circle class="st0" cx="48.8" cy="63.3" r="11.8"/>
			<path class="st0" d="M124,75.1H79c-5.2,0-9.5-4.3-9.5-9.5v-4.5c0-5.2,4.3-9.5,9.5-9.5h45c5.2,0,9.5,4.3,9.5,9.5v4.5
				C133.5,70.8,129.2,75.1,124,75.1z"/>
			<circle class="st0" cx="48.8" cy="93.8" r="11.8"/>
			<path class="st0" d="M124,105.5H79c-5.2,0-9.5-4.3-9.5-9.5v-4.5c0-5.2,4.3-9.5,9.5-9.5h45c5.2,0,9.5,4.3,9.5,9.5V96
				C133.5,101.2,129.2,105.5,124,105.5z"/>
			<circle class="st0" cx="48.8" cy="124.2" r="11.8"/>
			<path class="st0" d="M124,135.9H79c-5.2,0-9.5-4.3-9.5-9.5v-4.5c0-5.2,4.3-9.5,9.5-9.5h45c5.2,0,9.5,4.3,9.5,9.5v4.5
				C133.5,131.7,129.2,135.9,124,135.9z"/>
		</g>
		<g>
			<circle class="st2" cx="51.3" cy="60.5" r="11.8"/>
			<path class="st2" d="M126.5,72.3h-45c-5.2,0-9.5-4.3-9.5-9.5v-4.5c0-5.2,4.3-9.5,9.5-9.5h45c5.2,0,9.5,4.3,9.5,9.5v4.5
				C136,68,131.7,72.3,126.5,72.3z"/>
			<circle class="st2" cx="51.3" cy="90.9" r="11.8"/>
			<path class="st2" d="M126.5,102.7h-45c-5.2,0-9.5-4.3-9.5-9.5v-4.5c0-5.2,4.3-9.5,9.5-9.5h45c5.2,0,9.5,4.3,9.5,9.5v4.5
				C136,98.4,131.7,102.7,126.5,102.7z"/>
			<circle class="st2" cx="51.3" cy="121.4" r="11.8"/>
			<path class="st2" d="M126.5,133.1h-45c-5.2,0-9.5-4.3-9.5-9.5v-4.5c0-5.2,4.3-9.5,9.5-9.5h45c5.2,0,9.5,4.3,9.5,9.5v4.5
				C136,128.9,131.7,133.1,126.5,133.1z"/>
		</g>
	</g>
	<g id="BG_1_">
	</g>
</g>
<g id="Quit">
	<g id="Icon_4_">
	</g>
</g>
<g id="Sound">
</g>
<g id="Mute">
</g>
<g id="Plus">
</g>
<g id="Minus">
</g>
<g id="Alert">
</g>
</svg>
