<?xml version="1.0" encoding="utf-8"?>
<!-- Generator: Adobe Illustrator 21.1.0, SVG Export Plug-In . SVG Version: 6.00 Build 0)  -->
<svg version="1.1" class="mainIcon" xmlns="http://www.w3.org/2000/svg" xmlns:xlink="http://www.w3.org/1999/xlink" x="0px" y="0px"
	 viewBox="0 0 175.5 175.5" style="enable-background:new 0 0 175.5 175.5;" xml:space="preserve">
<style type="text/css">
	.st0{fill:#029789;}
	.st1{clip-path:url(#SVGID_2_);fill:#00A79D;}
	.st2{fill:#FFFFFF;}
	.st3{clip-path:url(#SVGID_4_);fill:#00A79D;}
	.st4{clip-path:url(#SVGID_6_);fill:#00A79D;}
	.st5{clip-path:url(#SVGID_8_);fill:#00A79D;}
	.st6{clip-path:url(#SVGID_10_);fill:#00A79D;}
	.st7{clip-path:url(#SVGID_12_);fill:#00A79D;}
	.st8{clip-path:url(#SVGID_14_);fill:#00A79D;}
	.st9{clip-path:url(#SVGID_16_);fill:#00A79D;}
	.st10{clip-path:url(#SVGID_18_);fill:#00A79D;}
	.st11{clip-path:url(#SVGID_20_);fill:#00A79D;}
</style>
<g id="Play">
	<g id="Icon">
	</g>
</g>
<g id="Pause">
	<g id="BG">
	</g>
</g>
<g id="Lives">
	<g id="Bg">
	</g>
</g>
<g id="Menu">
	<g id="BG_1_">
	</g>
</g>
<g id="Quit">
	<g id="Icon_4_">
	</g>
</g>
<g id="Sound">
</g>
<g id="Mute">
	<g>
		<circle class="st0" cx="87.8" cy="87.8" r="87.8"/>
		<g>
			<defs>
				<circle id="SVGID_13_" cx="87.8" cy="91.8" r="87.8"/>
			</defs>
			<clipPath id="SVGID_2_">
				<use xlink:href="#SVGID_13_"  style="overflow:visible;"/>
			</clipPath>
			<circle class="st1" cx="87.8" cy="84" r="87.8"/>
		</g>
		<g>
			<path class="st0" d="M118.6,58.7l-37.1,46.7l-28.4-0.7c-1.8,0-3.2-1.5-3.2-3.3l0.6-26c0-1.8,1.5-3.2,3.3-3.2l28.1,0.7
				c0.8,0,1.5-0.2,2.1-0.7l29-23.5c2.1-1.7,5.2-0.2,5.3,2.4L118.6,58.7z"/>
			<path class="st0" d="M119.6,124.3c0,2.7-3,4.3-5.2,2.7l-23.3-17.4L119,72.9l0.4,16.7l-0.2-0.1L119.6,124.3z"/>
		</g>
		<g>
			<path class="st2" d="M121.6,56.8l-37.1,46.7l-28.4-0.7c-1.8,0-3.2-1.5-3.2-3.3l0.6-26c0-1.8,1.5-3.2,3.3-3.2L84.9,71
				c0.8,0,1.5-0.2,2.1-0.7l29-23.5c2.1-1.7,5.2-0.2,5.3,2.4L121.6,56.8z"/>
			<path class="st2" d="M122.6,122.4c0,2.7-3,4.3-5.2,2.7l-23.3-17.4L122,71.1l0.4,16.7l-0.2-0.1L122.6,122.4z"/>
		</g>
	</g>
</g>
<g id="Plus">
</g>
<g id="Minus">
</g>
<g id="Alert">
</g>
</svg>
